<svg width="1411" height="1080" viewBox="0 0 1411 1080" fill="none" xmlns="http://www.w3.org/2000/svg">
<path d="M584.553 379.737C676.553 438.131 566.221 497.168 528 503.5C528 511.997 514.357 534.5 543.5 534.5C561.416 534.5 670.55 576.68 670.55 642.161C670.55 707.643 503.506 923.5 780.5 898.5C1057.49 873.5 878 1079.93 1194 1079.04C1289.65 1078.77 694.123 1081.2 740.506 1079.04H0.491818L0.492072 0.345357C-32.3545 0.345292 1553.98 -8.65221 1400.5 0.345396C1226.09 10.5697 1150.54 5.49261 1057.49 93C922.994 219.5 873.994 216 705.5 183C503.418 143.422 512.889 334.25 584.553 379.737Z" fill="#D02D2D"/>
<path d="M311.397 1015.98C412.684 1015.98 494.793 1004.86 494.793 991.149C494.793 977.437 412.684 966.322 311.397 966.322C210.109 966.322 128 977.437 128 991.149C128 1004.86 210.109 1015.98 311.397 1015.98Z" fill="#FB7C85"/>
<path d="M316.923 627.779H315.986C285.928 627.779 261.541 603.408 261.541 573.318V489.006C261.541 458.94 285.904 434.545 315.986 434.545H316.923C346.98 434.545 371.368 458.916 371.368 489.006V573.342C371.344 603.408 346.98 627.779 316.923 627.779Z" fill="#FF8888"/>
<path d="M339.748 626.577H338.811C308.754 626.577 284.367 602.206 284.367 572.116V487.805C284.367 457.738 308.73 433.344 338.811 433.344H339.748C369.806 433.344 394.193 457.714 394.193 487.805V572.14C394.193 602.206 369.83 626.577 339.748 626.577Z" fill="#1A3E4E"/>
<path d="M305.414 622.972C305.414 622.972 298.206 782.318 295.803 787.149C293.401 791.955 235.688 855.694 221.248 900.205C206.808 944.716 234.463 947.119 252.507 937.481C270.551 927.868 337.874 830.434 349.888 816.014C361.901 801.593 373.938 669.286 373.938 648.833C373.938 628.38 323.458 613.359 305.414 622.972Z" fill="white"/>
<path d="M219.302 902.824C219.302 902.824 224.876 934.862 245.899 941.471C252.315 943.49 236.289 945.677 228.768 947.48C221.248 949.282 214.04 974.23 217.043 979.661C220.047 985.069 225.765 991.678 221.849 995.908C217.932 1000.11 209.162 1003.31 206.207 1002.23C196.957 998.792 186.073 979.974 182.469 974.566C178.865 969.158 187.586 959.833 189.677 943.298C191.791 926.762 189.484 914.529 202.411 914.241C215.169 913.928 219.302 902.824 219.302 902.824Z" fill="#1A3E4E"/>
<path d="M409.21 616.555C409.21 616.555 422.04 714.374 422.04 774.507C422.04 834.64 397.989 935.655 397.196 940.486C396.403 945.316 367.547 954.113 363.535 947.696C359.522 941.279 353.924 863.505 360.339 835.457C366.754 807.385 361.132 732.039 361.132 717.594C361.132 703.174 353.924 638.21 357.937 631C361.925 623.765 407.624 598.914 409.21 616.555Z" fill="white"/>
<path d="M359.522 928.252C359.522 928.252 361.324 948.705 359.835 961.035C358.321 973.364 353.828 980.574 360.147 988.698C366.466 996.821 379.392 988.698 397.725 990.5C416.057 992.303 438.354 991.894 440.901 989.803C443.448 987.688 441.67 977.762 439.075 974.758C436.48 971.754 407.24 965.745 400.224 956.925C393.208 948.104 402.218 927.051 402.218 927.051C402.218 927.051 381.963 942.288 359.522 928.252Z" fill="#1A3E4E"/>
<path d="M366.442 443.582C366.442 443.582 365.505 449.687 370.046 455.599C372.761 459.156 375.067 462.257 380.978 465.021C387.802 468.217 396.139 514.891 397.196 542.987C398.109 567.622 405.125 587.185 409.234 616.555C413.342 645.925 366.346 659.239 338.306 651.645C310.267 644.05 305.438 623.573 305.438 623.573C305.438 623.573 309.45 573.462 308.633 561.445C307.84 549.428 293.4 478.071 292.607 472.447C291.815 466.823 290.493 466.102 293.617 462.016C296.212 458.603 320.479 458.315 325.572 446.586C330.666 434.858 330.69 430.652 330.69 430.652L366.442 443.582Z" fill="white"/>
<path d="M321.944 459.517C321.944 459.517 336.672 469.443 347.484 469.443C358.296 469.443 371.079 456.969 371.079 456.969C371.079 456.969 362.669 462.521 349.743 462.232C336.84 461.92 321.944 459.517 321.944 459.517Z" fill="#DDE0ED"/>
<path d="M297.316 510.613L307.6 553.225L316.922 491.29L297.316 510.613Z" fill="#D7F7FF"/>
<path d="M312.117 556.638L303.396 577.283L304.453 578.485L305.414 625.592C305.414 625.592 352.314 613.959 359.522 600.74L312.117 556.638Z" fill="#D7F7FF"/>
<path d="M376.965 653.639L362.525 763.379L390.997 638.017L376.965 653.639Z" fill="#D7F7FF"/>
<path d="M480.161 539.79C470.743 526.572 418.604 555.22 417.211 548.106C408.465 503.571 389.003 468.433 384.63 464.828C383.597 465.044 382.612 465.285 381.699 465.525C388.379 471.486 396.163 515.876 397.197 542.987C397.797 558.801 400.897 572.549 404.116 588.123C406.423 589.276 408.801 589.829 411.228 589.685C420.454 589.156 462.742 577.139 481.771 558.609C489.363 551.23 486.096 548.13 480.161 539.79Z" fill="#E9FAFF"/>
<path d="M478.479 552.937C478.479 552.937 486.312 554.355 491.862 555.989C497.412 557.624 505.797 556.494 507.167 556.566C508.536 556.638 516.057 532.845 515.36 532.797C514.663 532.773 500.367 531.09 497.292 531.787C494.216 532.484 479.079 536.065 479.079 536.065L478.815 536.257C473.409 540.439 473.241 548.563 478.479 552.937Z" fill="#FF8888"/>
<path d="M348.47 584.83C353.275 584.542 359.498 589.133 363.655 588.604C367.811 588.075 368.772 590.935 375.62 590.839C378.695 590.791 377.975 594.468 374.995 595.165C372.016 595.862 371.752 596.944 368.436 596.15C365.361 595.429 361.204 592.641 357.336 589.805C355.558 588.628 348.47 584.83 348.47 584.83Z" fill="#FF8888"/>
<path d="M272.785 612.085C276.926 612.085 280.282 608.62 280.282 604.346C280.282 600.072 276.926 596.607 272.785 596.607C268.645 596.607 265.289 600.072 265.289 604.346C265.289 608.62 268.645 612.085 272.785 612.085Z" fill="#FFA2A2"/>
<path d="M272.954 604.827C272.954 604.827 254.91 684.115 271.752 718.58C288.595 753.044 313.439 721.776 317.451 684.908C321.464 648.016 303.732 624.679 321.8 618.262" stroke="#2C2E30" stroke-width="2.5" stroke-miterlimit="10" stroke-linecap="round" stroke-linejoin="round"/>
<path d="M527.878 503.235L515.192 524.337L320.455 613.142L326.654 621.963L521.175 533.614L543.856 534.768L527.878 503.235Z" fill="#3E4649"/>
<path d="M322.137 615.45L314.136 619.776L316.683 624.583L325.116 619.872L322.137 615.45Z" fill="#3E4649"/>
<path d="M331.003 589.445C331.867 588.027 333.285 587.042 334.919 586.753C334.943 586.753 334.943 586.753 334.967 586.753C337.922 586.2 342.872 585.311 346.572 584.782C348.782 584.47 351.065 584.927 352.963 586.128L353.059 586.176C356.519 588.339 362.213 591.776 365 592.593C369.157 593.795 377.903 598.674 379.056 599.708C380.209 600.717 379.056 605.187 376.75 605.139C374.419 605.091 370.695 601.606 368.989 600.861C367.764 600.332 375.861 605.356 376.726 605.956C377.59 606.557 376.317 610.595 374.395 610.475C372.497 610.355 365.865 607.062 365.529 607.182C365.385 607.23 372.353 610.739 372.593 611.628C372.833 612.542 370.959 614.993 368.821 615.185C366.682 615.378 362.021 611.34 361.084 611.725C360.147 612.109 366.082 614.008 365.913 615.017C365.745 616.051 364.568 618.502 361.853 618.214C359.138 617.925 346.884 614.104 344.458 612.566C342.031 611.052 335.279 605.235 329.849 601.919C326.389 599.828 328.744 593.146 331.003 589.445Z" fill="#E89835"/>
<path d="M478.407 537.988C478.527 536.714 479.272 535.585 480.377 534.984C483.453 533.301 489.699 530.105 492.487 530.321C496.259 530.61 500.56 533.422 501.833 534.888C503.106 536.33 502.001 539.118 506.422 541.233C510.843 543.348 504.548 547.433 500.92 544.838C497.316 542.242 496.427 540.944 496.067 539.55C496.067 539.55 489.892 545.679 485.134 545.078C482.539 544.742 480.689 543.396 479.56 542.218C478.647 541.281 478.191 539.983 478.335 538.661L478.407 537.988Z" fill="#E89835"/>
<path d="M515.744 532.412C515.744 532.412 506.254 532.076 505.172 534.743C504.091 537.411 504.692 538.204 506.878 538.949C509.065 539.694 517.45 540.896 518.315 539.526C519.18 538.156 519.06 535.945 518.916 534.791C518.772 533.638 517.45 532.532 515.744 532.412Z" fill="#E89835"/>
<path d="M515.12 539.55C515.12 539.55 505.677 536.546 504.116 539.021C502.554 541.497 502.265 542.867 504.548 544.141C506.831 545.414 515.769 548.611 516.898 547.409C518.027 546.232 518.219 543.924 518.219 542.699C518.219 541.497 516.97 540.079 515.12 539.55Z" fill="#E89835"/>
<path d="M512.068 546.039C512.068 546.039 504.163 542.074 502.193 544.189C500.247 546.304 499.67 547.553 501.472 549.019C503.274 550.486 510.675 554.571 511.972 553.586C513.27 552.601 513.942 550.486 514.207 549.356C514.447 548.226 513.63 546.76 512.068 546.039Z" fill="#E89835"/>
<path d="M508.2 552.336C508.2 552.336 501.953 548.371 500.151 549.957C498.349 551.543 497.772 552.553 499.142 553.899C500.512 555.269 506.326 559.282 507.479 558.585C508.633 557.888 509.377 556.182 509.69 555.269C510.002 554.379 509.425 553.057 508.2 552.336Z" fill="#E89835"/>
<path d="M309.162 460.887C309.162 460.887 293.857 455.599 283.598 468.121C273.338 480.643 250.609 566.156 252.459 580.865C254.309 595.573 321.296 608.287 328.24 605.788C335.183 603.288 340.397 585.431 337.898 581.874C335.4 578.317 299.191 558.417 297.413 557.816C295.635 557.215 313.223 514.242 314.232 497.274C315.241 480.306 313.872 461.656 309.162 460.887Z" fill="white"/>
<path d="M293.593 460.022C293.593 460.022 307.024 477.254 311.228 490.088C315.433 502.922 309.619 541.593 306.015 547.409L308.61 564.449C308.61 564.449 317.836 548.202 320.623 525.971C323.434 503.715 324.635 495.303 320.815 482.686C316.995 470.068 306.015 454.205 306.015 454.205L293.593 460.022Z" fill="#1A3E4E"/>
<path d="M392.055 492.587C390.854 481.508 384.006 458.603 384.006 458.603L371.993 457.546C378.6 465.357 393.088 505.109 393.088 505.109L392.055 492.587Z" fill="#1A3E4E"/>
<path d="M351.497 366.457C351.497 366.457 337.706 363.308 323.53 373.595C309.354 383.882 310.291 406.425 309.354 425.989C308.417 445.553 309.667 454.181 315.962 456.825C322.257 459.469 350.921 465.789 361.324 462.473C371.728 459.156 376.125 450.864 376.125 450.864C376.125 450.864 378.96 419.692 379.272 403.758C379.633 387.847 369.157 370.11 351.497 366.457Z" fill="white"/>
<path d="M374.275 423.658C374.275 423.658 378.359 441.226 360.099 445.553C341.839 449.855 329.849 441.563 327.326 430.964C324.804 420.341 323.867 402.099 327.639 392.822C331.411 383.545 371.752 383.208 374.9 392.486C378.047 401.787 374.275 423.658 374.275 423.658Z" fill="#1A3E4E"/>
<path d="M366.466 384.723C366.466 384.723 332.732 384.29 329.152 386.045C325.572 387.823 318.196 407.579 324.083 412.242C329.993 416.904 334.631 419.788 343.689 417.337C352.747 414.885 351.906 407.795 357.816 409.334C363.727 410.896 364.135 417.337 373.626 416.207C383.117 415.102 377.639 398.014 377.206 396.668C376.774 395.322 374.059 386.045 366.466 384.723Z" fill="#FF8888"/>
<path d="M365.481 387.247C365.481 387.247 337.61 386.886 334.655 388.304C331.699 389.722 325.597 405.464 330.474 409.19C335.351 412.915 339.196 415.198 346.668 413.251C354.164 411.305 353.468 405.633 358.345 406.882C363.223 408.132 363.583 413.251 371.416 412.362C379.248 411.473 374.731 397.846 374.371 396.788C374.035 395.731 371.752 388.304 365.481 387.247Z" fill="#E4D7D7"/>
<g opacity="0.1">
<path opacity="0.1" d="M370.214 412.458C370.599 412.434 371.007 412.409 371.416 412.361C377.014 411.737 376.293 404.598 375.308 400.2L370.214 412.458Z" fill="#7AAFC9"/>
<path opacity="0.1" d="M340.013 387.583L330.883 409.478C332.637 410.8 334.295 411.929 336.049 412.722L346.644 387.318C344.242 387.366 341.959 387.463 340.013 387.583Z" fill="white"/>
<path opacity="0.1" d="M349.552 387.27L338.571 413.611C339.749 413.876 340.998 413.996 342.392 413.924L353.54 387.198C352.219 387.222 350.897 387.246 349.552 387.27Z" fill="white"/>
<path opacity="0.1" d="M365.481 387.246C365.481 387.246 365.121 387.246 364.472 387.246L356.303 406.81C356.856 406.69 357.505 406.69 358.321 406.882C358.994 407.05 359.571 407.29 360.075 407.579L368.148 388.207C367.38 387.751 366.491 387.414 365.481 387.246Z" fill="white"/>
<path opacity="0.1" d="M374.371 396.787C374.371 396.763 374.347 396.715 374.323 396.667L367.812 412.289C368.509 412.41 369.302 412.458 370.191 412.434L375.308 400.176C374.924 398.422 374.467 397.1 374.371 396.787Z" fill="white"/>
<path opacity="0.1" d="M369.854 389.361L361.781 408.732C363.223 409.91 364.472 411.28 366.587 412.001L373.699 394.937C373.026 393.326 371.8 391.043 369.854 389.361Z" fill="white"/>
</g>
</svg>
